<svg xmlns="http://www.w3.org/2000/svg" viewBox="0 0 1920 1080"><defs><style>.cls-1,.cls-3,.cls-4,.cls-5,.cls-6{opacity:0.26;}.cls-2,.cls-3,.cls-4,.cls-5,.cls-6{fill:none;stroke:#fff;stroke-miterlimit:10;}.cls-2,.cls-5{stroke-width:0.75px;}.cls-4{stroke-width:2px;}.cls-6{stroke-width:0.5px;}</style></defs><g id="Background"><rect width="1920" height="1080"/></g><g id="Ebene_1" data-name="Ebene 1"><g class="cls-1"><line class="cls-2" x1="249.99" y1="578.92" x2="461.47" y2="852.22"/></g><line class="cls-3" x1="1583.63" y1="86.88" x2="935.67" y2="794.27"/><line class="cls-4" x1="1033.89" y1="19.44" x2="1492.32" y2="897.41"/><line class="cls-4" x1="1034.76" y1="16.47" x2="233.14" y2="794.1"/><line class="cls-3" x1="364" y1="242.82" x2="156.55" y2="636.66"/><line class="cls-3" x1="628.21" y1="522.58" x2="500.15" y2="866.24"/><line class="cls-5" x1="1088.94" y1="352.57" x2="592.09" y2="706.27"/><line class="cls-3" x1="781.48" y1="393.69" x2="935.14" y2="795.05"/><line class="cls-5" x1="156.7" y1="636.49" x2="461.47" y2="852.22"/><line class="cls-3" x1="1583.53" y1="86.94" x2="1468.28" y2="389.21"/><line class="cls-3" x1="592.07" y1="706.61" x2="156.68" y2="636.37"/><line class="cls-3" x1="1638.28" y1="535.77" x2="1492.3" y2="896.99"/><line class="cls-3" x1="781.41" y1="393.28" x2="591.89" y2="706.84"/><line class="cls-4" x1="364.1" y1="242.77" x2="627.89" y2="523.72"/><line class="cls-5" x1="10.85" y1="490.76" x2="233.66" y2="794.28"/><line class="cls-3" x1="364.36" y1="242.74" x2="10.93" y2="491.08"/><line class="cls-6" x1="249.99" y1="578.92" x2="156.55" y2="636.66"/><line class="cls-3" x1="1638.28" y1="535.77" x2="1909.85" y2="439.74"/><line class="cls-3" x1="1909.85" y1="439.74" x2="1844.97" y2="755.47"/><line class="cls-3" x1="1844.97" y1="755.47" x2="1492.3" y2="896.99"/><line class="cls-3" x1="1468.28" y1="389.21" x2="1549.59" y2="826.23"/><line class="cls-5" x1="1549.59" y1="826.23" x2="1819.36" y2="566.5"/><line class="cls-6" x1="1819.36" y1="566.5" x2="1638.28" y2="535.77"/><line class="cls-5" x1="1638.28" y1="535.77" x2="1844.97" y2="755.47"/><line class="cls-5" x1="500.15" y1="866.24" x2="992.98" y2="1043.11"/><line class="cls-5" x1="992.98" y1="1043.11" x2="1375.43" y2="954.68"/><line class="cls-6" x1="1375.43" y1="954.68" x2="1472.75" y2="1069.87"/><line class="cls-3" x1="1088.94" y1="352.57" x2="1034.76" y2="16.47"/><line class="cls-5" x1="1034.76" y1="16.47" x2="858.31" y2="354.11"/></g></svg>