<svg id="Ebene_1" data-name="Ebene 1" xmlns="http://www.w3.org/2000/svg" viewBox="0 0 480 480"><defs><style>.cls-1{fill:#fff;}</style></defs><path class="cls-1" d="M240,0C107.45,0,0,107.45,0,240S107.45,480,240,480,480,372.55,480,240,372.48.15,240,0Zm0,464C116.29,464,16,363.71,16,240S116.29,16,240,16,464,116.29,464,240,363.65,463.86,240,464Z" transform="translate(0 0)"/><path class="cls-1" d="M352,144H128a8,8,0,0,0-8,8V328a8,8,0,0,0,8,8H352a8,8,0,0,0,8-8V152A8,8,0,0,0,352,144Zm-21.6,16L240,237.46,149.6,160ZM136,320V169.39l98.79,84.68a8,8,0,0,0,10.4,0L344,169.39V320Z" transform="translate(0 0)"/></svg>