<svg id="Ebene_1" data-name="Ebene 1" xmlns="http://www.w3.org/2000/svg" viewBox="0 0 480 480"><defs><style>.cls-1{fill:#fff;}</style></defs><path class="cls-1" d="M240,0C107.45,0,0,107.45,0,240S107.45,480,240,480,480,372.55,480,240,372.48.15,240,0Zm0,464C116.29,464,16,363.71,16,240S116.29,16,240,16,464,116.29,464,240,363.65,463.86,240,464Z" transform="translate(0 0)"/><path class="cls-1" d="M344,96H136a40.05,40.05,0,0,0-40,40V344a40.05,40.05,0,0,0,40,40H344a40.05,40.05,0,0,0,40-40V136A40.05,40.05,0,0,0,344,96Zm24,248a24,24,0,0,1-24,24H136a24,24,0,0,1-24-24V136a24,24,0,0,1,24-24H344a24,24,0,0,1,24,24Z" transform="translate(0 0)"/><path class="cls-1" d="M240,160a80,80,0,1,0,80,80A80,80,0,0,0,240,160Zm0,144a64,64,0,1,1,64-64A64,64,0,0,1,240,304Z" transform="translate(0 0)"/><path class="cls-1" d="M328,128a24,24,0,1,0,24,24A24,24,0,0,0,328,128Zm0,32a8,8,0,1,1,8-8A8,8,0,0,1,328,160Z" transform="translate(0 0)"/></svg>