<svg id="Layer_1" data-name="Layer 1" xmlns="http://www.w3.org/2000/svg" viewBox="0 0 505.71 505.71"><defs><style>.cls-1{fill:#fff;}</style></defs><path class="cls-1" d="M427.55,71.86c-99.2-95.81-256.48-95.81-355.69,0-98.22,101.7-95.4,263.76,6.29,362,99.21,95.81,256.49,95.81,355.7,0C532.07,332.15,529.25,170.08,427.55,71.86Zm-5.74,350-.08-.08c-93.35,93.27-244.64,93.2-337.9-.15S-9.37,176.94,84,83.67s244.64-93.2,337.9.16a239.12,239.12,0,0,1-.07,338Z" transform="translate(0 0)"/><path class="cls-1" d="M396.64,325.73l-48-47.79a27.9,27.9,0,0,0-39.46,0l-.05,0L281.7,305.42a6.07,6.07,0,0,1-7.77.68,310.69,310.69,0,0,1-42.07-35.33A311.52,311.52,0,0,1,200,233.48a6,6,0,0,1,.6-7.76l28.16-28.16a27.91,27.91,0,0,0,0-39.43l-48-47.95a28.58,28.58,0,0,0-39.51,0l-15.19,15.19a85.32,85.32,0,0,0-21.16,87,255.63,255.63,0,0,0,31.23,63.31,323.55,323.55,0,0,0,41,49.84A321.59,321.59,0,0,0,232,369.85a244.43,244.43,0,0,0,71,31.57,82,82,0,0,0,19.79,2.39,86.41,86.41,0,0,0,60.85-25.6l13.05-13.06A27.9,27.9,0,0,0,396.64,325.73Zm-12.08,27.78s0,0,0,0l.09-.26-13.06,13.06a68.29,68.29,0,0,1-64.43,18.43,226.66,226.66,0,0,1-65.87-29.53,303.59,303.59,0,0,1-52-41.89,306.57,306.57,0,0,1-38.83-47.11,238.56,238.56,0,0,1-29.18-59.05,68.27,68.27,0,0,1,17.07-69.72l15.18-15.19a10.85,10.85,0,0,1,15.33,0l0,0,48,48a10.85,10.85,0,0,1,0,15.33l0,0-28.16,28.16a23,23,0,0,0-2.39,29.87A329.92,329.92,0,0,0,220,283a327.21,327.21,0,0,0,44.37,37.29,23.13,23.13,0,0,0,29.53-2.56l27.22-27.65a10.82,10.82,0,0,1,15.32,0l0,0,48,48.13A10.82,10.82,0,0,1,384.56,353.51Z" transform="translate(0 0)"/></svg>